<?xml version="1.0" encoding="utf-8"?>
<!-- Generator: Adobe Illustrator 24.0.1, SVG Export Plug-In . SVG Version: 6.00 Build 0)  -->
<svg version="1.1" id="Capa_1" xmlns="http://www.w3.org/2000/svg" xmlns:xlink="http://www.w3.org/1999/xlink" x="0px" y="0px"
	 viewBox="0 0 512 512" style="enable-background:new 0 0 512 512;" xml:space="preserve">
<g>
	<g>
		<path d="M456.6,154.4l-150-150C303.8,1.6,300,0,296,0H66c-8.3,0-15,6.7-15,15v482c0,8.3,6.7,15,15,15h380c8.3,0,15-6.7,15-15V165
			C461,161,459.4,157.2,456.6,154.4z M431,482H81V30h208.8L431,171.2V482z"/>
	</g>
</g>
<path d="M354.7,241H271v-35c0-8.3-6.7-15-15-15s-15,6.7-15,15v35h-35c-8.3,0-15,6.7-15,15s6.7,15,15,15h35v35c0,8.3,6.7,15,15,15
	s15-6.7,15-15v-35h83.7c8.3,0,15-6.7,15-15S362.9,241,354.7,241z"/>
<path d="M157.3,271H241v35c0,8.3,6.7,15,15,15s15-6.7,15-15v-35h35c8.3,0,15-6.7,15-15s-6.7-15-15-15h-35v-35c0-8.3-6.7-15-15-15
	s-15,6.7-15,15v35h-83.7c-8.3,0-15,6.7-15,15S149.1,271,157.3,271z"/>
<path d="M241,157.3V241h-35c-8.3,0-15,6.7-15,15s6.7,15,15,15h35v35c0,8.3,6.7,15,15,15s15-6.7,15-15v-35h35c8.3,0,15-6.7,15-15
	s-6.7-15-15-15h-35v-83.7c0-8.3-6.7-15-15-15S241,149.1,241,157.3z"/>
<path d="M271,354.7V271h35c8.3,0,15-6.7,15-15s-6.7-15-15-15h-35v-35c0-8.3-6.7-15-15-15s-15,6.7-15,15v35h-35c-8.3,0-15,6.7-15,15
	s6.7,15,15,15h35v83.7c0,8.3,6.7,15,15,15S271,362.9,271,354.7z"/>
</svg>
